<?xml version="1.0" encoding="utf-8"?>
<!-- Generator: Adobe Illustrator 24.1.3, SVG Export Plug-In . SVG Version: 6.00 Build 0)  -->
<svg version="1.1" id="Layer_1" xmlns="http://www.w3.org/2000/svg" xmlns:xlink="http://www.w3.org/1999/xlink" x="0px" y="0px"
	 viewBox="0 0 2100.85 322.98" style="enable-background:new 0 0 2100.85 322.98;" xml:space="preserve">
<style type="text/css">
	.st0{fill:#F47920;}
	.st1{fill:#FFFFFF;}
</style>
<g id="Layer_2_1_">
</g>
<g>
	<polygon class="st0" points="130.93,171.89 130.93,0.93 98.86,19 98.86,189.96 	"/>
	<polygon class="st0" points="81.5,199.76 81.5,28.8 49.43,46.87 49.43,217.83 	"/>
	<polygon class="st0" points="32.07,227.61 32.07,56.65 0,74.72 0,245.68 	"/>
	<polygon class="st0" points="197.72,27.87 197.72,198.83 213.69,207.81 74.89,286.04 90.98,295.11 229.79,216.9 229.79,45.94 	"/>
	<polygon class="st0" points="148.29,0 148.29,170.96 164.25,179.96 25.46,258.17 41.55,267.26 180.36,189.03 180.36,18.07 	"/>
	<polygon class="st0" points="247.16,55.72 247.16,226.68 263.12,235.68 124.32,313.9 140.41,322.98 279.22,244.75 279.22,73.79 	
		"/>
</g>
<g>
	<path class="st1" d="M585.36,117.03c0,16.91-4.24,31.97-12.75,45.13c-8.51,13.16-20.33,23.01-35.5,29.59
		c-15.13,6.58-32.94,9.89-53.42,9.89h-32.12l-15.06,72.23h-67.69l47.47-224.64H507c25.28,0,44.65,5.84,58.1,17.47
		C578.63,78.3,585.36,95.1,585.36,117.03z M513.47,121.71c0-7.73-2.42-13.64-7.21-17.77s-11.71-6.17-20.67-6.17h-11.9l-11.45,55.46
		h18.96c9.7,0,17.51-2.94,23.42-8.85C510.49,138.44,513.47,130.9,513.47,121.71z"/>
	<path class="st1" d="M854.5,273.83h-66.73L815.8,141.6l7.36-33.68h-1.26l-11.6,27.88l-63.27,138.03h-62.19l-7.99-130.18
		c-0.63-8.77-0.93-20.67-0.93-35.72h-1.41c-3.05,23.08-6.54,44.16-10.48,63.31l-21.78,102.6h-60l47.47-224.64h94.94l7.84,134.27
		c0,6.8-0.26,13.83-0.78,21.15h0.93c1.78-5.02,3.61-10.26,5.5-15.76c1.9-5.46,3.83-10.41,5.8-14.8l54.83-124.87h103.38L854.5,273.83
		z"/>
	<path class="st0" d="M1059.25,164.17l39.78,109.66h-76.47l-12.53-58.1c-1.04-4.91-1.67-11.34-1.9-19.26v-4.68h-0.63
		c-3.23,8.36-6.8,15.61-10.67,21.78l-38.07,60.3h-83.83l92.12-116.09L929.14,49.23h78.62l8.62,56.54c1.04,6.17,1.67,12.64,1.9,19.44
		l-0.15,5.32h0.63c0.82-2.42,2.27-5.98,4.31-10.74c2.04-4.76,3.98-8.51,5.8-11.26c1.82-2.75,15.2-22.53,40.18-59.29h78.66
		L1059.25,164.17z"/>
	<path class="st1" d="M1340.58,117.03c0,16.91-4.24,31.97-12.75,45.13c-8.51,13.16-20.33,23.01-35.5,29.59
		c-15.13,6.58-32.94,9.89-53.42,9.89h-32.12l-15.06,72.23h-67.69l47.47-224.64h90.7c25.28,0,44.65,5.84,58.1,17.47
		C1333.85,78.3,1340.58,95.1,1340.58,117.03z M1268.68,121.71c0-7.73-2.42-13.64-7.21-17.77c-4.8-4.13-11.71-6.17-20.67-6.17h-11.9
		l-11.45,55.46h18.96c9.7,0,17.51-2.94,23.42-8.85C1265.75,138.44,1268.68,130.9,1268.68,121.71z"/>
	<path class="st1" d="M1552.39,107.29c0,17.03-5.87,31.6-17.62,43.72c-11.75,12.12-27.4,19.89-46.91,23.34v0.63
		c16.39,6.06,26.8,19.44,31.19,40.11l12.53,58.73h-71.89l-8.29-49.96c-1.67-9.4-4.72-16.58-9.18-21.52
		c-4.42-4.94-10.93-7.43-19.52-7.43h-0.63l-16.62,78.96h-67.66l47.47-224.64h88.21c24.87,0,44.24,5.06,58.1,15.2
		C1545.44,74.5,1552.39,88.82,1552.39,107.29z M1480.16,119.86c0-7.51-2.04-13.38-6.17-17.55c-4.13-4.16-10.3-6.28-18.55-6.28
		h-12.04l-11.6,51.37h15.06c10.11,0,18.22-2.68,24.27-7.99C1477.15,134.09,1480.16,127.55,1480.16,119.86z"/>
	<path class="st1" d="M1732.68,102.12h-72.23l-6.73,32.75h67.69l-11.11,52.94h-67.69l-7.06,33.05h77.25l-11.26,52.94h-144.9
		l47.47-224.64h139.88L1732.68,102.12z"/>
	<path class="st1" d="M1906.28,112.46c-11.08-6.17-21-10.48-29.78-13.01c-8.77-2.49-17.58-3.75-26.47-3.75
		c-7.1,0-12.71,1.52-16.84,4.54c-4.13,3.05-6.17,6.99-6.17,11.9c0,4.61,1.67,8.55,5.02,11.9c3.35,3.35,10.56,8.03,21.64,14.09
		c17.77,9.4,30.15,19.07,37.21,29.07c7.06,9.96,10.56,22.64,10.56,37.99c0,14.53-4.05,27.47-12.16,38.85
		c-8.1,11.38-19.26,19.85-33.53,25.39c-14.24,5.54-31.15,8.29-50.67,8.29c-14.2,0-27.51-1.6-39.85-4.8
		c-12.38-3.2-23.2-7.29-32.49-12.3l11.75-55.46c19.96,14.72,40.15,22.08,60.63,22.08c16.28,0,24.42-5.8,24.42-17.4
		c0-5.2-2.01-9.59-6.02-13.09c-4.01-3.49-11.11-7.55-21.23-12.16c-16.91-7.92-29-16.84-36.28-26.73
		c-7.25-9.89-10.89-22.49-10.89-37.84c0-14.5,3.98-27.66,11.9-39.4c7.92-11.75,18.81-20.56,32.6-26.47
		c13.79-5.91,29.78-8.85,47.95-8.85c14.42,0,27.32,1.3,38.77,3.9c11.45,2.6,21.78,5.58,31.11,8.92L1906.28,112.46z"/>
	<path class="st1" d="M2089.7,112.46c-11.08-6.17-21-10.48-29.78-13.01c-8.77-2.49-17.58-3.75-26.47-3.75
		c-7.1,0-12.71,1.52-16.84,4.54c-4.13,3.05-6.17,6.99-6.17,11.9c0,4.61,1.67,8.55,5.02,11.9c3.35,3.35,10.56,8.03,21.64,14.09
		c17.77,9.4,30.15,19.07,37.21,29.07c7.06,9.96,10.56,22.64,10.56,37.99c0,14.53-4.05,27.47-12.16,38.85
		c-8.1,11.38-19.26,19.85-33.53,25.39c-14.24,5.54-31.15,8.29-50.67,8.29c-14.2,0-27.51-1.6-39.85-4.8
		c-12.38-3.2-23.2-7.29-32.49-12.3l11.75-55.46c19.96,14.72,40.15,22.08,60.63,22.08c16.28,0,24.42-5.8,24.42-17.4
		c0-5.2-2.01-9.59-6.02-13.09c-4.01-3.49-11.11-7.55-21.23-12.16c-16.91-7.92-29-16.84-36.28-26.73
		c-7.25-9.89-10.89-22.49-10.89-37.84c0-14.5,3.98-27.66,11.9-39.4c7.92-11.75,18.81-20.56,32.6-26.47
		c13.79-5.91,29.78-8.85,47.95-8.85c14.42,0,27.32,1.3,38.77,3.9c11.45,2.6,21.78,5.58,31.08,8.92L2089.7,112.46z"/>
</g>
</svg>
