<?xml version="1.0" encoding="utf-8"?>
<!-- Generator: Adobe Illustrator 27.4.1, SVG Export Plug-In . SVG Version: 6.00 Build 0)  -->
<svg version="1.1" id="Layer_1" xmlns="http://www.w3.org/2000/svg" xmlns:xlink="http://www.w3.org/1999/xlink" x="0px" y="0px"
	 viewBox="0 0 2374.8 323" style="enable-background:new 0 0 2374.8 323;" xml:space="preserve">
<style type="text/css">
	.st0{fill:#F47920;}
	.st1{fill:#FFFFFF;}
	.st2{fill:#F37920;}
</style>
<g id="Layer_2_1_">
</g>
<g>
	<polygon class="st0" points="130.9,171.9 130.9,0.9 98.9,19 98.9,190 	"/>
	<polygon class="st0" points="81.5,199.8 81.5,28.8 49.4,46.9 49.4,217.8 	"/>
	<polygon class="st0" points="32.1,227.6 32.1,56.7 0,74.7 0,245.7 	"/>
	<polygon class="st0" points="197.7,27.9 197.7,198.8 213.7,207.8 74.9,286 91,295.1 229.8,216.9 229.8,45.9 	"/>
	<polygon class="st0" points="148.3,0 148.3,171 164.2,180 25.5,258.2 41.5,267.3 180.4,189 180.4,18.1 	"/>
	<polygon class="st0" points="247.2,55.7 247.2,226.7 263.1,235.7 124.3,313.9 140.4,323 279.2,244.8 279.2,73.8 	"/>
</g>
<g>
	<path class="st1" d="M532.3,123.9c0,14.3-3.6,27-10.8,38.1c-7.2,11.1-17.2,19.4-29.9,25c-12.8,5.6-27.8,8.3-45.1,8.3h-27.1
		l-12.7,60.9h-57.1l40-189.5h76.5c21.3,0,37.7,4.9,49,14.7C526.6,91.2,532.3,105.4,532.3,123.9z M471.7,127.9c0-6.5-2-11.5-6.1-15
		c-4.1-3.5-9.9-5.2-17.4-5.2h-10l-9.6,46.8h16c8.2,0,14.8-2.5,19.8-7.5C469.2,142,471.7,135.6,471.7,127.9z"/>
	<path class="st1" d="M759.3,256.2H703l23.7-111.5l6.2-28.4h-1.1l-9.8,23.5l-53.4,116.4h-52.5l-6.7-109.8
		c-0.5-7.4-0.8-17.4-0.8-30.1h-1.2c-2.6,19.5-5.5,37.3-8.9,53.4l-18.4,86.6h-50.6l40-189.5h80.1l6.6,113.2c0,5.7-0.2,11.7-0.7,17.8
		h0.8c1.5-4.2,3-8.7,4.6-13.3c1.6-4.6,3.2-8.8,4.9-12.5l46.2-105.3h87.2L759.3,256.2z"/>
	<path class="st2" d="M932.1,163.7l33.6,92.5h-64.5l-10.6-49c-0.9-4.1-1.4-9.6-1.6-16.3v-4h-0.5c-2.7,7-5.7,13.2-9,18.4l-32.1,50.9
		h-70.7l77.7-97.9l-32-91.6h66.3l7.3,47.7c0.9,5.2,1.4,10.7,1.6,16.4l-0.1,4.5h0.5c0.7-2,1.9-5,3.6-9.1c1.7-4,3.3-7.2,4.9-9.5
		c1.5-2.3,12.8-19,33.9-50h66.3L932.1,163.7z"/>
	<path class="st1" d="M1109,256.2H986.8l40-189.5h57.1l-30.5,144.8h65.1L1109,256.2z"/>
	<path class="st1" d="M1328,146.6c0,20.8-4.6,40.1-13.7,58c-9.1,17.9-21.8,31.5-37.9,40.8c-16.2,9.3-35.4,14-57.7,14
		c-16.9,0-31.5-3.5-43.7-10.4c-12.2-6.9-21.5-16.7-27.9-29.3c-6.4-12.6-9.6-27-9.6-43.2c0-21,4.6-40.3,13.9-58.1
		c9.2-17.8,22-31.4,38.2-40.8c16.2-9.4,35-14.1,56.4-14.1c25.5,0,45.5,7.4,60.1,22.2C1320.6,100.5,1328,120.8,1328,146.6z
		 M1267.3,148.5c0-11.5-2.4-20.3-7.2-26.4c-4.8-6-11.7-9.1-20.7-9.1c-8.3,0-15.5,2.8-21.7,8.3c-6.2,5.6-11,13.2-14.5,23.1
		c-3.5,9.8-5.2,20.1-5.2,30.9c0,11.7,2.4,20.5,7.3,26.5c4.8,5.9,11.5,8.9,20.1,8.9c7.9,0,15-2.5,21.3-7.4c6.3-4.9,11.3-12.4,15-22.5
		C1265.4,170.7,1267.3,159.9,1267.3,148.5z"/>
	<path class="st1" d="M1515.9,122.2c-6.5-3.8-14-6.8-22.4-9.1c-8.4-2.2-16.6-3.4-24.5-3.4c-20.1,0-35.8,5.7-47.1,17.1
		c-11.3,11.4-17,27.2-17,47.2c0,12.7,3.1,22.5,9.4,29.5c6.3,7,15.1,10.4,26.6,10.4c4.1,0,8-0.5,11.9-1.5l5.9-27.6h-34.9l9.2-43.2h92
		l-21.7,102c-21.5,10.5-45.1,15.7-70.8,15.7c-27.9,0-49.6-7.4-65.1-22.1c-15.5-14.7-23.2-35.5-23.2-62.4c0-21.3,5.2-40.6,15.7-57.9
		c10.4-17.3,25.1-30.5,43.9-39.8c18.8-9.2,40.9-13.9,66.3-13.9c17.6,0,36.6,3.2,57,9.5L1515.9,122.2z"/>
	<path class="st1" d="M1590.8,256.2h-57.1l40-189.5h57.1L1590.8,256.2z"/>
	<path class="st1" d="M1773.8,120.1c-9.3-5.2-17.7-8.9-25.1-11c-7.4-2.1-14.8-3.2-22.3-3.2c-6,0-10.7,1.3-14.2,3.8
		c-3.5,2.6-5.2,5.9-5.2,10c0,3.9,1.4,7.2,4.2,10c2.8,2.8,8.9,6.8,18.2,11.9c15,7.9,25.4,16.1,31.4,24.5c5.9,8.4,8.9,19.1,8.9,32
		c0,12.2-3.4,23.2-10.2,32.8c-6.8,9.6-16.3,16.7-28.3,21.4c-12,4.7-26.3,7-42.7,7c-12,0-23.2-1.3-33.6-4
		c-10.4-2.7-19.6-6.1-27.4-10.4l9.9-46.8c16.8,12.4,33.9,18.6,51.1,18.6c13.7,0,20.6-4.9,20.6-14.7c0-4.4-1.7-8.1-5.1-11
		c-3.4-3-9.4-6.4-17.9-10.2c-14.3-6.7-24.5-14.2-30.6-22.5c-6.1-8.3-9.2-19-9.2-31.9c0-12.2,3.3-23.3,10-33.2
		c6.7-9.9,15.9-17.4,27.5-22.3c11.6-5,25.1-7.5,40.4-7.5c12.2,0,23.1,1.1,32.7,3.3c9.6,2.2,18.4,4.7,26.2,7.5L1773.8,120.1z"/>
	<path class="st1" d="M1962.9,111.3h-53.6l-30.5,144.8h-57.4l30.5-144.8h-53l9.4-44.7h164L1962.9,111.3z"/>
	<path class="st1" d="M2011.9,256.2h-57.1l40-189.5h57.1L2011.9,256.2z"/>
	<path class="st1" d="M2216.2,122.2c-5.4-2.6-11.3-4.7-17.7-6.5c-6.4-1.8-14.2-2.6-23.4-2.6c-12,0-22.4,2.6-31.1,7.7
		c-8.8,5.2-15.5,12.3-20.2,21.5c-4.7,9.2-7.1,19.4-7.1,30.7c0,11.8,3.6,21,10.7,27.7c7.1,6.7,17.4,10,30.9,10c6,0,12.7-1,20.1-2.9
		c7.4-1.9,14.6-4.6,21.5-7.9l-11.4,52.2c-13.7,4.9-28.9,7.4-45.5,7.4c-27.8,0-49.3-7.2-64.4-21.5c-15.1-14.4-22.7-34.3-22.7-59.7
		c0-22.8,5.2-43.1,15.5-61c10.3-17.8,24.7-31.3,43.3-40.2c18.5-9,40.3-13.5,65.2-13.5c8,0,16.5,0.6,25.4,1.9
		c8.9,1.3,16.4,2.8,22.5,4.6L2216.2,122.2z"/>
	<path class="st1" d="M2365.4,120.1c-9.3-5.2-17.7-8.9-25.1-11c-7.4-2.1-14.8-3.2-22.3-3.2c-6,0-10.7,1.3-14.2,3.8
		c-3.5,2.6-5.2,5.9-5.2,10c0,3.9,1.4,7.2,4.2,10c2.8,2.8,8.9,6.8,18.2,11.9c15,7.9,25.4,16.1,31.4,24.5c5.9,8.4,8.9,19.1,8.9,32
		c0,12.2-3.4,23.2-10.2,32.8c-6.8,9.6-16.3,16.7-28.3,21.4c-12,4.7-26.3,7-42.7,7c-12,0-23.2-1.3-33.6-4
		c-10.4-2.7-19.6-6.1-27.4-10.4l9.9-46.8c16.8,12.4,33.9,18.6,51.1,18.6c13.7,0,20.6-4.9,20.6-14.7c0-4.4-1.7-8.1-5.1-11
		c-3.4-3-9.4-6.4-17.9-10.2c-14.3-6.7-24.5-14.2-30.6-22.5c-6.1-8.3-9.2-19-9.2-31.9c0-12.2,3.3-23.3,10-33.2
		c6.7-9.9,15.9-17.4,27.5-22.3c11.6-5,25.1-7.5,40.4-7.5c12.2,0,23.1,1.1,32.7,3.3c9.6,2.2,18.4,4.7,26.2,7.5L2365.4,120.1z"/>
</g>
</svg>
