<?xml version="1.0"?>
<!-- Updated with #f27821 primary color theme -->
<svg width="800px" height="800px" viewBox="0 0 512 512" id="Layer_1" version="1.1"
    xml:space="preserve" xmlns="http://www.w3.org/2000/svg"
    xmlns:xlink="http://www.w3.org/1999/xlink">

<g id="_x30_7_Warehouse">

<g>

<g>

<g>

<g>

<rect height="311.406" style="fill:#EDEDED;" width="357.286" x="104.965" y="174.191"/>

</g>

<g>

<g>

<polygon points="486.34,154.847 486.34,485.588 462.246,485.588 462.246,174.203 104.959,174.203 104.959,485.588 80.864,485.588 80.864,154.847 283.582,70.715"
    style="fill:#A8B2B4;"/>

</g>

</g>

<g>

<g>

<polygon points="486.34,154.847 486.34,167.938 283.582,83.807 80.864,167.938 80.864,154.847 283.582,70.715"
    style="fill:#D1DAD9;"/>

</g>

</g>

<g>

<g>

<rect height="15.903" style="fill:#677375;" width="24.095" x="80.864" y="469.685"/>

</g>

<g>

<rect height="15.903" style="fill:#677375;" width="24.095" x="462.246" y="469.685"/>

</g>

</g>

<g>

<g>

<path d="M506.907,116.903v46.476L283.588,70.7L60.309,163.379v-46.476l215.047-88.462
    c5.14-2.691,11.285-2.691,16.464,0L506.907,116.903z"
    style="fill:#f29b5f;"/>

</g>

</g>

<g>

<g>

<polygon points="506.901,149.444 506.901,163.379 283.582,70.694 60.303,163.379 60.303,149.444 283.582,56.799"
    style="fill:#e47b3b;"/>

</g>

</g>

<g>

<g>

<path d="M506.901,116.897v13.895L291.814,42.324c-5.18-2.691-11.324-2.691-16.465,0L60.302,130.792
    v-13.895l215.047-88.468c5.14-2.691,11.285-2.691,16.465,0L506.901,116.897z"
    style="fill:#f2b78d;"/>

</g>

</g>

</g>

<g>

<g>

<g>

<rect height="118.418" style="fill:#FEE9B4;" width="118.418" x="204.244" y="367.172"/>

</g>

<g>

<path d="M322.662,367.152V485.59H204.223v-25.411h40.422c29.04,0,52.605-23.503,52.605-52.605v-40.423
    L322.662,367.152L322.662,367.152z"
    style="fill:#f2aa75;"/>

</g>

<g>

<rect height="118.418" style="fill:#f2d2a2;" width="118.418" x="322.662" y="367.172"/>

</g>

<g>

<path d="M441.08,367.152V485.59H322.642v-25.411h40.422c29.04,0,52.605-23.503,52.605-52.605v-40.423
    L441.08,367.152L441.08,367.152z"
    style="fill:#f2d2a2;"/>

</g>

</g>

<g>

<rect height="118.418" style="fill:#f2aa75;" width="118.418" x="263.453" y="248.754"/>

</g>

<g>

<path d="M381.899,248.723v118.439H263.461v-25.411h40.422c29.04,0,52.605-23.504,52.605-52.605v-40.423
   L381.899,248.723L381.899,248.723z"
    style="fill:#f2aa75;"/>

</g>

<g>

<g>

<rect height="36.105" style="fill:#f27821;" width="28.765" x="249.07" y="367.172"/>

</g>

<g>

<rect height="36.105" style="fill:#f27821;" width="28.765" x="308.279" y="248.754"/>

</g>

<g>

<rect height="36.105" style="fill:#f27821;" width="28.765" x="367.488" y="367.172"/>

</g>

</g>

<g>

<g>

<path d="M277.857,367.162v36.116h-28.794v-10.952h6.892c6.029,0,10.95-4.861,10.95-10.952v-14.212
    H277.857z"
    style="fill:#e47b3b;"/>

</g>

<g>

<path d="M337.046,248.723v36.116h-28.794v-10.89h6.89c6.091,0,10.952-4.922,10.952-10.952v-14.274
    H337.046z"
    style="fill:#e47b3b;"/>

</g>

<g>

<path d="M396.234,367.162v36.116h-28.732v-10.952h6.892c6.03,0,10.95-4.861,10.95-10.952v-14.212
    H396.234z"
    style="fill:#e47b3b;"/>

</g>

</g>

</g>

<g>

<g>

<g>

<rect height="87.486" style="fill:#f2d2a2;" width="87.486" x="3.013" y="398.104"/>

</g>

<g>

<path d="M90.499,398.089v87.501H2.998v-18.773h29.863c21.455,0,38.864-17.364,38.864-38.864v-29.864
    L90.499,398.089L90.499,398.089z"
    style="fill:#f2aa75;"/>

</g>

<g>

<rect height="87.486" style="fill:#f2d2a2;" width="87.486" x="90.499" y="398.104"/>

</g>

<g>

<path d="M177.985,398.089v87.501H90.484v-18.773h29.863c21.455,0,38.864-17.364,38.864-38.864v-29.864
    L177.985,398.089L177.985,398.089z"
    style="fill:#f2aa75;"/>

</g>

</g>

<g>

<rect height="87.486" style="fill:#f2aa75;" width="87.486" x="46.756" y="310.618"/>

</g>

<g>

<path d="M134.263,310.596v87.501H46.762v-18.773h29.863c21.455,0,38.864-17.364,38.864-38.864v-29.864
    L134.263,310.596L134.263,310.596z"
    style="fill:#f2aa75;"/>

</g>

<g>

<g>

<rect height="26.674" style="fill:#f27821;" width="21.251" x="36.131" y="398.104"/>

</g>

<g>

<rect height="26.674" style="fill:#f27821;" width="21.251" x="79.874" y="310.618"/>

</g>

<g>

<rect height="26.674" style="fill:#f27821;" width="21.251" x="123.617" y="398.104"/>

</g>

</g>

<g>

<g>

<path d="M57.398,398.097v26.682H36.125v-8.091h5.092c4.454,0,8.09-3.591,8.09-8.091v-10.5
    H57.398z"
    style="fill:#e47b3b;"/>

</g>

<g>

<path d="M101.126,310.596v26.682H79.853v-8.046h5.09c4.5,0,8.091-3.637,8.091-8.091v-10.545
    H101.126z"
    style="fill:#e47b3b;"/>

</g>

<g>

<path d="M144.854,398.097v26.682h-21.227v-8.091h5.092c4.454,0,8.09-3.591,8.09-8.091v-10.5
    H144.854z"
    style="fill:#e47b3b;"/>

</g>

</g>

</g>

</g>
</g></g>
</svg>